<?xml version="1.0" encoding="UTF-8"?>
<!-- Generated by Pixelmator Pro 3.3.8 -->
<svg width="800" height="800" viewBox="0 0 800 800" xmlns="http://www.w3.org/2000/svg">
    <g id="Group">
        <path id="Path" fill="#ffffff" stroke="none" d="M 195.233337 86.033325 C 188.133331 73.799988 192.333344 58.099976 204.566666 51 C 216.800003 43.900024 232.5 48.06665 239.599991 60.333313 L 272.533325 117.333313 C 279.633331 129.56665 275.433319 145.266663 263.200012 152.366638 C 250.966675 159.466675 235.266678 155.299988 228.166656 143.033325 L 195.233337 86.033325 L 195.233337 86.033325 Z M 400 170.56665 C 463.366638 170.56665 520.700012 196.233337 562.233337 237.766663 C 603.733337 279.299988 629.43335 336.666656 629.43335 400 C 629.43335 463.366638 603.766663 520.700012 562.233337 562.233337 C 520.700012 603.766663 463.366638 629.43335 400 629.43335 C 336.633331 629.43335 279.299988 603.766663 237.766678 562.233337 C 196.266663 520.700012 170.566666 463.366638 170.566666 400 C 170.566666 336.633331 196.233337 279.299988 237.766678 237.766663 C 279.299988 196.266663 336.666656 170.56665 400 170.56665 L 400 170.56665 Z M 527.56665 272.43335 C 494.933319 239.799988 449.833313 219.599976 400 219.599976 C 350.166687 219.599976 305.06665 239.799988 272.43335 272.43335 C 239.800003 305.06665 219.599991 350.166687 219.599991 400 C 219.599991 449.833313 239.800003 494.933319 272.43335 527.56665 C 305.06665 560.200012 350.166687 580.399963 400 580.399963 C 449.833313 580.399963 494.933319 560.200012 527.56665 527.56665 C 560.200012 494.933319 580.399963 449.833313 580.399963 400 C 580.399963 350.166687 560.200012 305.06665 527.56665 272.43335 L 527.56665 272.43335 Z M 379.599976 25.700012 C 379.599976 11.5 391.100006 0 405.299988 0 C 419.5 0 431 11.5 431 25.700012 L 431 91.533325 C 431 105.733337 419.5 117.233337 405.299988 117.233337 C 391.100006 117.233337 379.599976 105.733337 379.599976 91.533325 L 379.599976 25.700012 L 379.599976 25.700012 Z M 569.56665 65.733337 C 576.599976 53.5 592.233337 49.266663 604.5 56.299988 C 616.733337 63.333313 620.966675 78.966675 613.933289 91.233337 L 581 148.233337 C 573.966675 160.466675 558.333313 164.700012 546.066711 157.666687 C 533.833313 150.633301 529.600037 135 536.633362 122.733337 L 569.56665 65.733337 L 569.56665 65.733337 Z M 713.966675 195.233337 C 726.200012 188.133301 741.900024 192.333313 749 204.56665 C 756.099976 216.799988 751.93335 232.5 739.666626 239.599976 L 682.666687 272.533325 C 670.43335 279.633301 654.733337 275.43335 647.633301 263.200012 C 640.533325 250.966675 644.700012 235.266663 656.966675 228.166626 L 713.966675 195.233337 L 713.966675 195.233337 Z M 774.299988 379.599976 C 788.5 379.599976 800 391.100006 800 405.299988 C 800 419.5 788.5 431 774.299988 431 L 708.466675 431 C 694.266663 431 682.766663 419.5 682.766663 405.299988 C 682.766663 391.100006 694.266663 379.599976 708.466675 379.599976 L 774.299988 379.599976 L 774.299988 379.599976 Z M 734.266663 569.56665 C 746.5 576.599976 750.733337 592.233337 743.700012 604.5 C 736.666687 616.733337 721.033325 620.966675 708.766663 613.933289 L 651.766663 581 C 639.533325 573.966675 635.299988 558.333313 642.333313 546.066711 C 649.366638 533.833313 665 529.599976 677.266663 536.633362 L 734.266663 569.56665 L 734.266663 569.56665 Z M 604.766663 713.966675 C 611.866638 726.200012 607.666687 741.900024 595.43335 749 C 583.200012 756.099976 567.5 751.93335 560.399963 739.666626 L 527.466675 682.666687 C 520.366699 670.43335 524.56665 654.733337 536.799988 647.633301 C 549.033325 640.533325 564.733337 644.700012 571.833374 656.966675 L 604.766663 713.966675 L 604.766663 713.966675 Z M 420.400024 774.299988 C 420.400024 788.5 408.899994 800 394.700012 800 C 380.5 800 369 788.5 369 774.299988 L 369 708.466675 C 369 694.266663 380.5 682.766663 394.700012 682.766663 C 408.899994 682.766663 420.400024 694.266663 420.400024 708.466675 L 420.400024 774.299988 L 420.400024 774.299988 Z M 230.433319 734.266663 C 223.399994 746.5 207.766678 750.733337 195.5 743.700012 C 183.266663 736.666687 179.033325 721.033325 186.066666 708.766663 L 218.999985 651.766663 C 226.033325 639.533325 241.666672 635.299988 253.933334 642.333313 C 266.166656 649.366638 270.400024 665 263.366669 677.266663 L 230.433319 734.266663 L 230.433319 734.266663 Z M 86.033333 604.766663 C 73.799995 611.866638 58.100002 607.666687 51 595.43335 C 43.900002 583.200012 48.066666 567.5 60.333336 560.399963 L 117.333336 527.466675 C 129.566666 520.366699 145.266678 524.56665 152.366669 536.799988 C 159.466675 549.033325 155.300003 564.733337 143.033325 571.833374 L 86.033333 604.766663 L 86.033333 604.766663 Z M 25.700001 420.400024 C 11.5 420.400024 0 408.899994 0 394.700012 C 0 380.5 11.5 369 25.700001 369 L 91.533333 369 C 105.73333 369 117.23333 380.5 117.23333 394.700012 C 117.23333 408.899994 105.73333 420.400024 91.533333 420.400024 L 25.700001 420.400024 L 25.700001 420.400024 Z M 65.73333 230.43335 C 53.499996 223.399963 49.266666 207.766663 56.299999 195.5 C 63.333332 183.266663 78.966667 179.033325 91.233337 186.06665 L 148.233337 219 C 160.46666 226.033325 164.699997 241.666687 157.666656 253.93335 C 150.633331 266.166687 135 270.400024 122.73333 263.366699 L 65.73333 230.43335 L 65.73333 230.43335 Z"/>
    </g>
</svg>
