<?xml version="1.0" encoding="UTF-8"?>
<!-- Generated by Pixelmator Pro 3.3.8 -->
<svg width="800" height="800" viewBox="0 0 800 800" xmlns="http://www.w3.org/2000/svg">
    <path id="Path" fill="none" stroke="#000000" stroke-width="50" stroke-linecap="round" stroke-linejoin="round" d="M 566.333313 298.665344 L 233.666992 298.665344"/>
    <path id="path1" fill="none" stroke="#000000" stroke-width="50" stroke-linecap="round" stroke-linejoin="round" d="M 400 242.667664 L 400 298.667328"/>
    <path id="path2" fill="none" stroke="#000000" stroke-width="50" stroke-linecap="round" stroke-linejoin="round" d="M 483.333344 297.998016 C 483.333344 441.329987 371.333344 557.330017 233.333328 557.330017"/>
    <path id="path3" fill="none" stroke="#000000" stroke-width="50" stroke-linecap="round" stroke-linejoin="round" d="M 566.66333 557.333313 C 506.66333 557.333313 453.333344 525.333374 415 475"/>
    <path id="path4" fill="none" stroke="#000000" stroke-width="50" stroke-linecap="round" stroke-linejoin="round" d="M 300 733.333313 L 500 733.333313 C 666.666687 733.333313 733.333313 666.666687 733.333313 500 L 733.333313 300 C 733.333313 133.333313 666.666687 66.666687 500 66.666687 L 300 66.666687 C 133.333328 66.666687 66.666664 133.333313 66.666664 300 L 66.666664 500 C 66.666664 666.666687 133.333328 733.333313 300 733.333313 Z"/>
</svg>
