<?xml version="1.0" encoding="UTF-8"?>
<!-- Generated by Pixelmator Pro 3.3.8 -->
<svg width="800" height="800" viewBox="0 0 800 800" xmlns="http://www.w3.org/2000/svg">
    <g id="SVGRepoiconCarrier">
        <path id="Path" fill="#000000" stroke="none" d="M 503.690002 463.300018 L 486.063354 445.573334 L 486.063354 445.573334 L 503.690002 463.300018 Z M 518.873352 448.206696 L 536.5 465.933319 L 536.5 465.933319 L 518.873352 448.206696 Z M 599.426636 437.646667 L 587.486633 459.609985 L 599.426636 437.646667 Z M 663.110046 472.266663 L 651.170044 494.22998 L 663.110046 472.266663 Z M 681.056641 580.766663 L 698.68335 598.493347 L 681.056641 580.766663 Z M 633.703369 627.84668 L 616.07666 610.119995 L 633.703369 627.84668 Z M 589.543335 650.169983 L 591.863281 675.063354 L 591.863281 675.063354 L 589.543335 650.169983 Z M 260.845337 508.886658 L 278.472656 491.156677 L 260.845337 508.886658 Z M 100.429672 209.520325 L 75.470001 210.93866 L 75.470001 210.93866 L 100.429672 209.520325 Z M 316.25 257.912659 L 333.876678 275.640686 L 333.876678 275.640686 L 316.25 257.912659 Z M 321.473328 169.449341 L 341.486664 154.46698 L 321.473328 169.449341 Z M 279.441986 113.302673 L 259.42865 128.284973 L 259.42865 128.284973 L 279.441986 113.302673 Z M 175.714996 103.827698 L 193.342331 121.555664 L 193.342331 121.555664 L 175.714996 103.827698 Z M 123.395004 155.850647 L 105.76767 138.122681 L 105.76767 138.122681 L 123.395004 155.850647 Z M 369.103333 401.23999 L 386.730011 383.513336 L 369.103333 401.23999 Z M 521.31665 481.029999 L 536.5 465.933319 L 501.243347 430.476654 L 486.063354 445.573334 L 521.31665 481.029999 Z M 587.486633 459.609985 L 651.170044 494.22998 L 675.050049 450.303345 L 611.366638 415.68335 L 587.486633 459.609985 Z M 663.429993 563.036682 L 616.07666 610.119995 L 651.329956 645.57666 L 698.68335 598.493347 L 663.429993 563.036682 Z M 587.223389 625.279968 C 538.893311 629.783325 413.853333 625.77002 278.472656 491.156677 L 243.217987 526.613342 C 390.953339 673.51001 531.563293 680.68335 591.863281 675.063354 L 587.223389 625.279968 Z M 278.472656 491.156677 C 149.426666 362.843323 128.050339 254.921631 125.389328 208.101685 L 75.470001 210.93866 C 78.818665 269.866333 105.287674 389.466675 243.217987 526.613342 L 278.472656 491.156677 Z M 324.31665 285.146973 L 333.876678 275.640686 L 298.623322 240.184998 L 289.062988 249.690979 L 324.31665 285.146973 Z M 341.486664 154.46698 L 299.454987 98.320313 L 259.42865 128.284973 L 301.459991 184.432007 L 341.486664 154.46698 Z M 158.087662 86.09967 L 105.76767 138.122681 L 141.022339 173.578674 L 193.342331 121.555664 L 158.087662 86.09967 Z M 306.689972 267.419006 C 289.062988 249.690979 289.039001 249.714661 289.015015 249.738647 C 289.006989 249.746704 288.983002 249.770996 288.966675 249.787354 C 288.93399 249.820313 288.900665 249.853638 288.867004 249.888 C 288.799347 249.957031 288.72934 250.028687 288.657349 250.103333 C 288.513 250.252991 288.360321 250.414978 288.199677 250.589661 C 287.877991 250.93866 287.525024 251.338013 287.147003 251.789001 C 286.391357 252.690674 285.535004 253.801025 284.63501 255.129333 C 282.830688 257.792358 280.864685 261.313354 279.19632 265.741333 C 275.791992 274.776306 273.96701 286.686646 276.255005 301.434998 C 280.729675 330.277679 300.593323 368.376678 351.476654 418.970001 L 386.730011 383.513336 C 339.113312 336.166321 327.769989 307.352997 325.66333 293.769653 C 324.660004 287.305298 325.699982 284.123657 325.986664 283.370361 C 326.160004 282.904358 326.243317 282.856689 326.029999 283.174988 C 325.92334 283.330688 325.746643 283.574341 325.470001 283.902649 C 325.333344 284.067017 325.170013 284.252991 324.980011 284.460327 C 324.883331 284.564026 324.783325 284.672974 324.669983 284.787354 C 324.616669 284.844666 324.559998 284.903015 324.5 284.963013 C 324.470001 284.993042 324.440002 285.023315 324.409973 285.053955 C 324.396667 285.069336 324.373322 285.092651 324.363312 285.100342 C 324.339996 285.123657 324.31665 285.146973 306.689972 267.419006 Z M 351.476654 418.970001 C 402.376678 469.580017 440.653351 489.276672 469.543335 493.710022 C 484.306702 495.973328 496.210022 494.166656 505.23999 490.803345 C 509.666687 489.15332 513.193298 487.209991 515.859985 485.42334 C 517.193359 484.529999 518.306641 483.679993 519.209961 482.929993 C 519.66333 482.556671 520.063354 482.206665 520.41333 481.886688 C 520.590027 481.726685 520.753357 481.57666 520.90332 481.433319 C 520.97998 481.359985 521.049988 481.289978 521.119995 481.223328 C 521.15332 481.190002 521.186707 481.156677 521.220032 481.123322 C 521.236694 481.106659 521.263306 481.083344 521.269958 481.07666 C 521.293335 481.053314 521.31665 481.029999 503.690002 463.300018 C 486.063354 445.573334 486.08667 445.549988 486.109985 445.526672 C 486.116638 445.519989 486.140015 445.496643 486.156677 445.480011 C 486.186646 445.449982 486.216675 445.420013 486.246704 445.390015 C 486.309998 445.333313 486.366699 445.276672 486.42334 445.220001 C 486.539978 445.110016 486.650024 445.01001 486.753357 444.91333 C 486.959961 444.726654 487.146667 444.563324 487.313354 444.429993 C 487.640015 444.156677 487.883362 443.983337 488.033325 443.879974 C 488.343323 443.67334 488.280029 443.766663 487.786682 443.949982 C 486.970032 444.253326 483.700012 445.296661 477.126648 444.286652 C 463.350006 442.176666 434.333344 430.843323 386.730011 383.513336 L 351.476654 418.970001 Z M 299.454987 98.320313 C 265.477997 52.934021 198.665344 45.752319 158.087662 86.09967 L 193.342331 121.555664 C 211.065002 103.93335 242.540985 105.72699 259.42865 128.284973 L 299.454987 98.320313 Z M 125.389328 208.101685 C 124.733658 196.564636 130.024994 184.513306 141.022339 173.578674 L 105.76767 138.122681 C 87.857002 155.931641 73.776337 181.141663 75.470001 210.93866 L 125.389328 208.101685 Z M 616.07666 610.119995 C 606.916687 619.22998 597.09668 624.359985 587.223389 625.279968 L 591.863281 675.063354 C 616.349976 672.780029 636.41333 660.410034 651.329956 645.57666 L 616.07666 610.119995 Z M 333.876678 275.640686 C 366.693329 243.01001 369.133331 191.396667 341.486664 154.46698 L 301.459991 184.431641 C 314.910004 202.397644 312.910004 225.979309 298.623322 240.184998 L 333.876678 275.640686 Z M 651.170044 494.22998 C 678.429993 509.049988 682.676697 543.896667 663.429993 563.036682 L 698.68335 598.493347 C 743.359985 554.070007 729.583374 479.946686 675.050049 450.303345 L 651.170044 494.22998 Z M 536.5 465.933319 C 549.299988 453.206665 569.90332 450.053345 587.486633 459.609985 L 611.366638 415.68335 C 575.246704 396.046661 530.419983 401.470001 501.243347 430.476654 L 536.5 465.933319 Z"/>
    </g>
</svg>
