<?xml version="1.0" encoding="UTF-8"?>
<!-- Generated by Pixelmator Pro 3.3.8 -->
<svg width="800" height="800" viewBox="0 0 800 800" xmlns="http://www.w3.org/2000/svg">
    <g id="SVGRepoiconCarrier">
        <path id="Path" fill="#063017" stroke="none" d="M 503.690002 495.300018 L 486.063354 477.573334 L 486.063354 477.573334 L 503.690002 495.300018 Z M 518.873352 480.206696 L 536.5 497.933319 L 536.5 497.933319 L 518.873352 480.206696 Z M 599.426636 469.646667 L 587.486633 491.609985 L 599.426636 469.646667 Z M 663.110046 504.266663 L 651.170044 526.22998 L 663.110046 504.266663 Z M 681.056641 612.766663 L 698.68335 630.493347 L 681.056641 612.766663 Z M 633.703369 659.84668 L 616.07666 642.119995 L 633.703369 659.84668 Z M 589.543335 682.169983 L 591.863281 707.063354 L 591.863281 707.063354 L 589.543335 682.169983 Z M 260.845337 540.886658 L 278.472656 523.156677 L 260.845337 540.886658 Z M 100.429672 241.520325 L 75.470001 242.93866 L 75.470001 242.93866 L 100.429672 241.520325 Z M 316.25 289.912659 L 333.876678 307.640686 L 333.876678 307.640686 L 316.25 289.912659 Z M 321.473328 201.449341 L 341.486664 186.46698 L 321.473328 201.449341 Z M 279.441986 145.302673 L 259.42865 160.284973 L 259.42865 160.284973 L 279.441986 145.302673 Z M 175.714996 135.827698 L 193.342331 153.555664 L 193.342331 153.555664 L 175.714996 135.827698 Z M 123.395004 187.850647 L 105.76767 170.122681 L 105.76767 170.122681 L 123.395004 187.850647 Z M 369.103333 433.23999 L 386.730011 415.513336 L 369.103333 433.23999 Z M 521.31665 513.030029 L 536.5 497.933319 L 501.243347 462.476654 L 486.063354 477.573334 L 521.31665 513.030029 Z M 587.486633 491.609985 L 651.170044 526.22998 L 675.050049 482.303345 L 611.366638 447.68335 L 587.486633 491.609985 Z M 663.429993 595.036682 L 616.07666 642.119995 L 651.329956 677.57666 L 698.68335 630.493347 L 663.429993 595.036682 Z M 587.223389 657.279968 C 538.893311 661.783325 413.853333 657.77002 278.472656 523.156677 L 243.217987 558.613342 C 390.953339 705.51001 531.563293 712.68335 591.863281 707.063354 L 587.223389 657.279968 Z M 278.472656 523.156677 C 149.426666 394.843323 128.050339 286.921631 125.389328 240.101685 L 75.470001 242.93866 C 78.818665 301.866333 105.287674 421.466675 243.217987 558.613342 L 278.472656 523.156677 Z M 324.31665 317.146973 L 333.876678 307.640686 L 298.623322 272.184998 L 289.062988 281.690979 L 324.31665 317.146973 Z M 341.486664 186.46698 L 299.454987 130.320313 L 259.42865 160.284973 L 301.459991 216.432007 L 341.486664 186.46698 Z M 158.087662 118.09967 L 105.76767 170.122681 L 141.022339 205.578674 L 193.342331 153.555664 L 158.087662 118.09967 Z M 306.689972 299.419006 C 289.062988 281.690979 289.039001 281.714661 289.015015 281.738647 C 289.006989 281.746704 288.983002 281.770996 288.966675 281.787354 C 288.93399 281.820313 288.900665 281.853638 288.867004 281.888 C 288.799347 281.957031 288.72934 282.028687 288.657349 282.103333 C 288.513 282.252991 288.360321 282.414978 288.199677 282.589661 C 287.877991 282.93866 287.525024 283.338013 287.147003 283.789001 C 286.391357 284.690674 285.535004 285.801025 284.63501 287.129333 C 282.830688 289.792358 280.864685 293.313354 279.19632 297.741333 C 275.791992 306.776306 273.96701 318.686646 276.255005 333.434998 C 280.729675 362.277679 300.593323 400.376678 351.476654 450.970001 L 386.730011 415.513336 C 339.113312 368.166321 327.769989 339.352997 325.66333 325.769653 C 324.660004 319.305298 325.699982 316.123657 325.986664 315.370361 C 326.160004 314.904358 326.243317 314.856689 326.029999 315.174988 C 325.92334 315.330688 325.746643 315.574341 325.470001 315.902649 C 325.333344 316.067017 325.170013 316.252991 324.980011 316.460327 C 324.883331 316.564026 324.783325 316.672974 324.669983 316.787354 C 324.616669 316.844666 324.559998 316.903015 324.5 316.963013 C 324.470001 316.993042 324.440002 317.023315 324.409973 317.053955 C 324.396667 317.069336 324.373322 317.092651 324.363312 317.100342 C 324.339996 317.123657 324.31665 317.146973 306.689972 299.419006 Z M 351.476654 450.970001 C 402.376678 501.580017 440.653351 521.276672 469.543335 525.710022 C 484.306702 527.973328 496.210022 526.166626 505.23999 522.803345 C 509.666687 521.15332 513.193298 519.209961 515.859985 517.42334 C 517.193359 516.530029 518.306641 515.679993 519.209961 514.929993 C 519.66333 514.556641 520.063354 514.206665 520.41333 513.886719 C 520.590027 513.726685 520.753357 513.57666 520.90332 513.43335 C 520.97998 513.359985 521.049988 513.289978 521.119995 513.223328 C 521.15332 513.190002 521.186707 513.156677 521.220032 513.123291 C 521.236694 513.106689 521.263306 513.083374 521.269958 513.07666 C 521.293335 513.053345 521.31665 513.030029 503.690002 495.300018 C 486.063354 477.573334 486.08667 477.549988 486.109985 477.526672 C 486.116638 477.519989 486.140015 477.496643 486.156677 477.480011 C 486.186646 477.449982 486.216675 477.420013 486.246704 477.390015 C 486.309998 477.333313 486.366699 477.276672 486.42334 477.220001 C 486.539978 477.110016 486.650024 477.01001 486.753357 476.91333 C 486.959961 476.726654 487.146667 476.563324 487.313354 476.429993 C 487.640015 476.156677 487.883362 475.983337 488.033325 475.879974 C 488.343323 475.67334 488.280029 475.766663 487.786682 475.949982 C 486.970032 476.253326 483.700012 477.296661 477.126648 476.286652 C 463.350006 474.176666 434.333344 462.843323 386.730011 415.513336 L 351.476654 450.970001 Z M 299.454987 130.320313 C 265.477997 84.934021 198.665344 77.752319 158.087662 118.09967 L 193.342331 153.555664 C 211.065002 135.93335 242.540985 137.72699 259.42865 160.284973 L 299.454987 130.320313 Z M 125.389328 240.101685 C 124.733658 228.564636 130.024994 216.513306 141.022339 205.578674 L 105.76767 170.122681 C 87.857002 187.931641 73.776337 213.141663 75.470001 242.93866 L 125.389328 240.101685 Z M 616.07666 642.119995 C 606.916687 651.22998 597.09668 656.359985 587.223389 657.279968 L 591.863281 707.063354 C 616.349976 704.780029 636.41333 692.410034 651.329956 677.57666 L 616.07666 642.119995 Z M 333.876678 307.640686 C 366.693329 275.01001 369.133331 223.396667 341.486664 186.46698 L 301.459991 216.431641 C 314.910004 234.397644 312.910004 257.979309 298.623322 272.184998 L 333.876678 307.640686 Z M 651.170044 526.22998 C 678.429993 541.049988 682.676697 575.896667 663.429993 595.036682 L 698.68335 630.493347 C 743.359985 586.070007 729.583374 511.946686 675.050049 482.303345 L 651.170044 526.22998 Z M 536.5 497.933319 C 549.299988 485.206665 569.90332 482.053345 587.486633 491.609985 L 611.366638 447.68335 C 575.246704 428.046661 530.419983 433.470001 501.243347 462.476654 L 536.5 497.933319 Z"/>
    </g>
</svg>
