<?xml version="1.0" encoding="UTF-8"?>
<!-- Generated by Pixelmator Pro 3.3.8 -->
<svg width="700" height="700" viewBox="0 0 700 700" xmlns="http://www.w3.org/2000/svg">
    <path id="Path" fill="#000000" stroke="none" d="M 450.479889 442.851898 L 433.39682 425.671875 L 433.39682 425.671875 L 450.479889 442.851898 Z M 465.195007 428.22403 L 482.278076 445.403992 L 482.278076 445.403992 L 465.195007 428.22403 Z M 543.264099 417.989655 L 531.692322 439.275635 L 543.264099 417.989655 Z M 604.983582 451.541992 L 593.411804 472.828003 L 604.983582 451.541992 Z M 622.376709 556.695984 L 639.459839 573.875977 L 622.376709 556.695984 Z M 576.483765 602.324097 L 559.400696 585.144043 L 576.483765 602.324097 Z M 533.685608 623.958984 L 535.934021 648.084656 L 535.934021 648.084656 L 533.685608 623.958984 Z M 215.124298 487.032684 L 232.208008 469.849487 L 215.124298 487.032684 Z M 59.655678 196.898468 L 35.465736 198.273071 L 35.465736 198.273071 L 59.655678 196.898468 Z M 268.820343 243.798462 L 285.903442 260.979767 L 285.903442 260.979767 L 268.820343 243.798462 Z M 273.882599 158.063232 L 293.278717 143.542908 L 273.882599 158.063232 Z M 233.147446 103.648071 L 213.751297 118.168335 L 213.751297 118.168335 L 233.147446 103.648071 Z M 132.619278 94.465332 L 149.703003 111.646545 L 149.703003 111.646545 L 132.619278 94.465332 Z M 81.912781 144.883911 L 64.829056 127.702637 L 64.829056 127.702637 L 81.912781 144.883911 Z M 320.043732 382.705719 L 337.126831 365.525726 L 320.043732 382.705719 Z M 467.562958 460.035095 L 482.278076 445.403992 L 448.108704 411.040741 L 433.39682 425.671875 L 467.562958 460.035095 Z M 531.692322 439.275635 L 593.411804 472.828003 L 616.555359 430.256012 L 554.835876 396.703674 L 531.692322 439.275635 Z M 605.293701 539.512817 L 559.400696 585.144043 L 593.566772 619.507263 L 639.459839 573.875977 L 605.293701 539.512817 Z M 531.437195 599.836548 C 484.597565 604.20105 363.413696 600.311523 232.208008 469.849487 L 198.040558 504.212708 C 341.21991 646.579224 477.493591 653.531372 535.934021 648.084656 L 531.437195 599.836548 Z M 232.208008 469.849487 C 107.141655 345.493164 86.424553 240.899658 83.845604 195.52359 L 35.465736 198.273071 C 38.711132 255.383484 64.363861 371.295471 198.040558 504.212708 L 232.208008 469.849487 Z M 276.638214 270.192871 L 285.903442 260.979767 L 251.737244 226.617493 L 242.471741 235.830322 L 276.638214 270.192871 Z M 293.278717 143.542908 L 252.543259 89.127747 L 213.751297 118.168335 L 254.486435 172.583862 L 293.278717 143.542908 Z M 115.535561 77.283997 L 64.829056 127.702637 L 98.996513 162.065247 L 149.703003 111.646545 L 115.535561 77.283997 Z M 259.555145 253.011627 C 242.471741 235.830322 242.448502 235.853271 242.425247 235.876526 C 242.41748 235.884338 242.394226 235.907867 242.378403 235.923706 C 242.346725 235.955658 242.314423 235.987946 242.281799 236.021271 C 242.216232 236.088165 242.148392 236.157623 242.078613 236.22995 C 241.938721 236.375 241.790741 236.531982 241.635056 236.701294 C 241.323288 237.03952 240.981216 237.426544 240.614853 237.863647 C 239.882507 238.737518 239.052567 239.813599 238.180328 241.100952 C 236.431641 243.681854 234.526276 247.094269 232.909348 251.385681 C 229.610016 260.142029 227.841309 271.685089 230.058746 285.978607 C 234.395416 313.931824 253.6465 350.855865 302.960632 399.888947 L 337.126831 365.525726 C 290.978577 319.638855 279.985077 291.714111 277.943359 278.549652 C 276.970978 272.284637 277.978882 269.201141 278.256744 268.471069 C 278.424744 268.01944 278.505463 267.973236 278.298737 268.281708 C 278.195374 268.432617 278.024109 268.668762 277.756012 268.986938 C 277.623566 269.14624 277.465271 269.326477 277.281128 269.527405 C 277.187439 269.62793 277.090515 269.73349 276.980652 269.84436 C 276.928986 269.899902 276.874054 269.956451 276.815918 270.014587 C 276.786835 270.043701 276.757782 270.073029 276.728668 270.102722 C 276.715759 270.117645 276.693146 270.140228 276.683441 270.147705 C 276.660858 270.170288 276.638214 270.192871 259.555145 253.011627 Z M 302.960632 399.888947 C 352.290955 448.938232 389.387238 468.027466 417.386261 472.324097 C 431.694366 474.517578 443.230591 472.766632 451.982086 469.507019 C 456.272278 467.907898 459.690125 466.024506 462.274567 464.292938 C 463.566833 463.427155 464.645782 462.603363 465.52124 461.876495 C 465.960632 461.514679 466.348297 461.175476 466.6875 460.865356 C 466.858734 460.710297 467.017029 460.56488 467.162384 460.425964 C 467.236664 460.354919 467.304504 460.287048 467.372375 460.222473 C 467.404663 460.190155 467.437012 460.157867 467.46933 460.125549 C 467.485474 460.109375 467.511261 460.086792 467.5177 460.080322 C 467.540344 460.057678 467.562958 460.035095 450.479889 442.851898 C 433.39682 425.671875 433.419434 425.649231 433.442017 425.626648 C 433.448486 425.620178 433.47113 425.597534 433.487274 425.581421 C 433.516327 425.552307 433.54541 425.523285 433.574524 425.494202 C 433.635864 425.43924 433.690826 425.384369 433.745728 425.329437 C 433.858765 425.222839 433.965424 425.125916 434.065552 425.032227 C 434.265778 424.851288 434.446747 424.692993 434.608276 424.563782 C 434.924866 424.298889 435.160706 424.13092 435.306061 424.030731 C 435.606476 423.830475 435.545135 423.920929 435.067017 424.098572 C 434.275543 424.392578 431.106384 425.403717 424.735718 424.424866 C 411.383942 422.379944 383.262115 411.396118 337.126831 365.525726 L 302.960632 399.888947 Z M 252.543259 89.127747 C 219.61409 45.141113 154.861862 38.180908 115.535561 77.283997 L 149.703003 111.646545 C 166.879135 94.567688 197.38443 96.30603 213.751297 118.168335 L 252.543259 89.127747 Z M 83.845604 195.52359 C 83.210152 184.342346 88.33831 172.662659 98.996513 162.065247 L 64.829056 127.702637 C 47.470737 144.962402 33.824303 169.394958 35.465736 198.273071 L 83.845604 195.52359 Z M 559.400696 585.144043 C 550.523193 593.973145 541.005981 598.944946 531.437195 599.836548 L 535.934021 648.084656 C 559.665527 645.871704 579.110168 633.88324 593.566772 619.507263 L 559.400696 585.144043 Z M 285.903442 260.979767 C 317.708038 229.355377 320.072815 179.33374 293.278717 143.542908 L 254.486435 172.583496 C 267.521667 189.995453 265.583344 212.849884 251.737244 226.617493 L 285.903442 260.979767 Z M 593.411804 472.828003 C 619.831116 487.190979 623.946838 520.963013 605.293701 539.512817 L 639.459839 573.875977 C 682.758728 530.822632 669.406982 458.985168 616.555359 430.256012 L 593.411804 472.828003 Z M 482.278076 445.403992 C 494.683319 433.069794 514.651245 430.013733 531.692322 439.275635 L 554.835876 396.703674 C 519.829834 377.672546 476.385559 382.92865 448.108704 411.040741 L 482.278076 445.403992 Z"/>
</svg>
