<?xml version="1.0" encoding="UTF-8"?>
<!-- Generated by Pixelmator Pro 3.3.8 -->
<svg width="650" height="650" viewBox="0 0 650 650" xmlns="http://www.w3.org/2000/svg">
    <path id="Path" fill="#ffffff" stroke="none" d="M 443.873352 405.206696 L 428.690002 420.300018 C 428.690002 420.300018 392.603333 456.18335 294.103333 358.23999 C 195.604004 260.300293 231.689972 224.419006 231.689972 224.419006 L 241.25 214.912659 C 264.803345 191.49469 267.023346 153.896973 246.473328 126.449341 L 204.441986 70.302673 C 179.009338 36.330688 129.865341 31.843018 100.714996 60.827698 L 48.395004 112.850647 C 33.94101 127.222656 24.255005 145.852966 25.429672 166.520325 C 28.434662 219.393982 52.356995 333.156677 185.845337 465.886658 C 327.403351 606.640015 460.226685 612.233337 514.543335 607.169983 C 531.723328 605.570068 546.66333 596.820007 558.703369 584.84668 L 606.056641 537.766663 C 638.02002 505.983307 629.006714 451.496674 588.110046 429.266663 L 524.426636 394.646667 C 497.573364 380.049988 464.860046 384.33667 443.873352 405.206696 Z"/>
</svg>
